<svg xmlns="http://www.w3.org/2000/svg" xmlns:xlink="http://www.w3.org/1999/xlink" contentStyleType="text/css" height="1136.4583px" preserveAspectRatio="none" style="width:1773px;height:1136px;" version="1.1" viewBox="0 0 1773 1136" width="1773.9583px" zoomAndPan="magnify"><defs><linearGradient id="g1okqzj8mmtrfy0" x1="50%" x2="50%" y1="0%" y2="100%"><stop offset="0%" stop-color="#7C9AB9"/><stop offset="100%" stop-color="#304D6D"/></linearGradient><linearGradient id="g1okqzj8mmtrfy1" x1="50%" x2="50%" y1="0%" y2="100%"><stop offset="0%" stop-color="#B8B8B8"/><stop offset="100%" stop-color="#6B6B6B"/></linearGradient></defs><g><g id="Inactive"><rect fill="url(#g1okqzj8mmtrfy0)" height="57.2728" rx="4.1667" ry="4.1667" style="stroke:#304D6D;stroke-width:1.0416666666666667;" width="73.5195" x="852.6042" y="129.1667"/><line style="stroke:#304D6D;stroke-width:1.0416666666666667;" x1="852.6042" x2="926.1237" y1="165.6061" y2="165.6061"/><text fill="#FFFFFF" font-family="Verdana" font-size="11.4583" lengthAdjust="spacing" textLength="42.2695" x="868.2292" y="151.8322">Inactive</text></g><ellipse cx="889.5833" cy="27.0833" fill="#3399F3" rx="10.4167" ry="10.4167" style="stroke:#304D6D;stroke-width:1.0416666666666667;"/><path d="M21.875,278.125 L1757.8125,278.125 A4.1667,4.1667 0 0 1 1761.9792,282.2917 L1761.9792,377.0079 L17.7083,377.0079 L17.7083,282.2917 A4.1667,4.1667 0 0 1 21.875,278.125 " fill="url(#g1okqzj8mmtrfy0)" style="stroke:url(#g1okqzj8mmtrfy0);stroke-width:1.0416666666666667;"/><rect fill="none" height="847.1745" rx="4.1667" ry="4.1667" style="stroke:#304D6D;stroke-width:1.0416666666666667;" width="1744.2708" x="17.7083" y="278.125"/><line style="stroke:#304D6D;stroke-width:1.0416666666666667;" x1="17.7083" x2="1761.9792" y1="377.0079" y2="377.0079"/><line style="stroke:#304D6D;stroke-width:1.0416666666666667;" x1="17.7083" x2="1761.9792" y1="314.5645" y2="314.5645"/><text fill="#FFFFFF" font-family="Verdana" font-size="11.4583" lengthAdjust="spacing" textLength="32.1977" x="873.7449" y="300.7905">Active</text><text fill="#FFFFFF" font-family="Verdana" font-size="11.4583" lengthAdjust="spacing" textLength="183.5382" x="28.125" y="332.0217">entry / armSerialTimerLowSpeed()</text><text fill="#FFFFFF" font-family="Verdana" font-size="11.4583" lengthAdjust="spacing" textLength="135.1386" x="28.125" y="347.6278">exit / disarmSerialTimer()</text><text fill="#FFFFFF" font-family="Verdana" font-size="11.4583" lengthAdjust="spacing" textLength="176.606" x="28.125" y="363.2339">on SERIAL_TIMEOUT / pollSerial()</text><!--cluster WaitingForNewCommand--><g id="cluster_WaitingForNewCommand"><path d="M664.0625,729.4662 L1103.6458,729.4662 A4.1667,4.1667 0 0 1 1107.8125,733.6329 L1107.8125,791.9285 L659.8958,791.9285 L659.8958,733.6329 A4.1667,4.1667 0 0 1 664.0625,729.4662 " fill="url(#g1okqzj8mmtrfy0)" style="stroke:url(#g1okqzj8mmtrfy0);stroke-width:1.0416666666666667;"/><rect fill="none" height="213.5417" rx="4.1667" ry="4.1667" style="stroke:#304D6D;stroke-width:1.0416666666666667;" width="447.9167" x="659.8958" y="729.4662"/><line style="stroke:#304D6D;stroke-width:1.0416666666666667;" x1="659.8958" x2="1107.8125" y1="791.9285" y2="791.9285"/><line style="stroke:#304D6D;stroke-width:1.0416666666666667;" x1="659.8958" x2="1107.8125" y1="760.6973" y2="760.6973"/><text fill="#FFFFFF" font-family="Verdana" font-size="11.4583" lengthAdjust="spacing" textLength="139.2063" x="795.8333" y="751.0901">WaitingForNewCommand</text><text fill="#FFFFFF" font-family="Verdana" font-size="11.4583" lengthAdjust="spacing" textLength="176.606" x="670.3125" y="780.7587">on SERIAL_TIMEOUT / pollSerial()</text></g><!--cluster ProcessingStreamCommand--><g id="cluster_ProcessingStreamCommand"><path d="M1411.9792,519.7162 L1743.2292,519.7162 A4.1667,4.1667 0 0 1 1747.3958,523.8829 L1747.3958,597.7846 L1407.8125,597.7846 L1407.8125,523.8829 A4.1667,4.1667 0 0 1 1411.9792,519.7162 " fill="url(#g1okqzj8mmtrfy0)" style="stroke:url(#g1okqzj8mmtrfy0);stroke-width:1.0416666666666667;"/><rect fill="none" height="595.1667" rx="4.1667" ry="4.1667" style="stroke:#304D6D;stroke-width:1.0416666666666667;" width="339.5833" x="1407.8125" y="519.7162"/><line style="stroke:#304D6D;stroke-width:1.0416666666666667;" x1="1407.8125" x2="1747.3958" y1="597.7846" y2="597.7846"/><line style="stroke:#304D6D;stroke-width:1.0416666666666667;" x1="1407.8125" x2="1747.3958" y1="550.9473" y2="550.9473"/><text fill="#FFFFFF" font-family="Verdana" font-size="11.4583" lengthAdjust="spacing" textLength="153.5406" x="1484.375" y="541.3401">ProcessingStreamCommand</text><text fill="#FFFFFF" font-family="Verdana" font-size="11.4583" lengthAdjust="spacing" textLength="187.1705" x="1418.2292" y="571.0087">entry / armSerialTimerHighSpeed()</text><text fill="#FFFFFF" font-family="Verdana" font-size="11.4583" lengthAdjust="spacing" textLength="174.8987" x="1418.2292" y="586.6148">exit / armSerialTimerLowSpeed()</text></g><g id="Active.WaitingForNewCommand.PlayingPattern"><rect fill="url(#g1okqzj8mmtrfy0)" height="104.0912" rx="4.1667" ry="4.1667" style="stroke:#304D6D;stroke-width:1.0416666666666667;" width="388.6442" x="693.75" y="813.8412"/><line style="stroke:#304D6D;stroke-width:1.0416666666666667;" x1="693.75" x2="1082.3942" y1="850.2807" y2="850.2807"/><text fill="#FFFFFF" font-family="Verdana" font-size="11.4583" lengthAdjust="spacing" textLength="79.1536" x="848.4953" y="836.5067">PlayingPattern</text><text fill="#FFFFFF" font-family="Verdana" font-size="11.4583" lengthAdjust="spacing" textLength="278.3553" x="704.1667" y="872.9462">on COMMAND_PROCESSED / writeBinaryResponse()</text><text fill="#FFFFFF" font-family="Verdana" font-size="11.4583" lengthAdjust="spacing" textLength="357.3942" x="704.1667" y="888.5523">on PATTERN_FINISHED_PLAYING / writePatternFinishedResponse()</text><text fill="#FFFFFF" font-family="Verdana" font-size="11.4583" lengthAdjust="spacing" textLength="303.7009" x="704.1667" y="904.1585">on PLAY_PATTERN_ERROR / writePatternErrorResponse()</text></g><g id="elem_c"><polygon fill="url(#g1okqzj8mmtrfy1)" points="1536.9792,853.4245,1549.4792,865.9245,1536.9792,878.4245,1524.4792,865.9245,1536.9792,853.4245" style="stroke:#6B6B6B;stroke-width:1.0416666666666667;"/></g><g id="Active.ProcessingStreamCommand.MidStreamCommand"><rect fill="url(#g1okqzj8mmtrfy0)" height="57.2728" rx="4.1667" ry="4.1667" style="stroke:#304D6D;stroke-width:1.0416666666666667;" width="146.5659" x="1504.1667" y="1032.5912"/><line style="stroke:#304D6D;stroke-width:1.0416666666666667;" x1="1504.1667" x2="1650.7325" y1="1069.0307" y2="1069.0307"/><text fill="#FFFFFF" font-family="Verdana" font-size="11.4583" lengthAdjust="spacing" textLength="115.3159" x="1519.7917" y="1055.2567">MidStreamCommand</text></g><g id="Active.Uninitialized"><rect fill="url(#g1okqzj8mmtrfy0)" height="72.8789" rx="4.1667" ry="4.1667" style="stroke:#304D6D;stroke-width:1.0416666666666667;" width="150.7023" x="30.2083" y="566.9662"/><line style="stroke:#304D6D;stroke-width:1.0416666666666667;" x1="30.2083" x2="180.9106" y1="603.4057" y2="603.4057"/><text fill="#FFFFFF" font-family="Verdana" font-size="11.4583" lengthAdjust="spacing" textLength="66.7787" x="72.1701" y="589.6317">Uninitialized</text><text fill="#FFFFFF" font-family="Verdana" font-size="11.4583" lengthAdjust="spacing" textLength="119.4523" x="40.625" y="626.0712">entry / initializeSerial()</text></g><ellipse cx="105.7292" cy="418.1537" fill="#3399F3" rx="10.4167" ry="10.4167" style="stroke:#304D6D;stroke-width:1.0416666666666667;"/><g id="Active.Waiting"><rect fill="url(#g1okqzj8mmtrfy0)" height="57.2728" rx="4.1667" ry="4.1667" style="stroke:#304D6D;stroke-width:1.0416666666666667;" width="72.5112" x="311.9792" y="574.7787"/><line style="stroke:#304D6D;stroke-width:1.0416666666666667;" x1="311.9792" x2="384.4903" y1="611.2182" y2="611.2182"/><text fill="#FFFFFF" font-family="Verdana" font-size="11.4583" lengthAdjust="spacing" textLength="41.2612" x="327.6042" y="597.4442">Waiting</text></g><g id="Active.ChoosingCommandProcessor"><rect fill="url(#g1okqzj8mmtrfy0)" height="57.2728" rx="4.1667" ry="4.1667" style="stroke:#304D6D;stroke-width:1.0416666666666667;" width="191.3676" x="890.1042" y="389.5079"/><line style="stroke:#304D6D;stroke-width:1.0416666666666667;" x1="890.1042" x2="1081.4718" y1="425.9473" y2="425.9473"/><text fill="#FFFFFF" font-family="Verdana" font-size="11.4583" lengthAdjust="spacing" textLength="160.1176" x="905.7292" y="412.1734">ChoosingCommandProcessor</text></g><g id="Active.ProcessingBinaryCommand"><rect fill="url(#g1okqzj8mmtrfy0)" height="72.8789" rx="4.1667" ry="4.1667" style="stroke:#304D6D;stroke-width:1.0416666666666667;" width="208.8987" x="881.25" y="566.9662"/><line style="stroke:#304D6D;stroke-width:1.0416666666666667;" x1="881.25" x2="1090.1487" y1="603.4057" y2="603.4057"/><text fill="#FFFFFF" font-family="Verdana" font-size="11.4583" lengthAdjust="spacing" textLength="149.2666" x="911.066" y="589.6317">ProcessingBinaryCommand</text><text fill="#FFFFFF" font-family="Verdana" font-size="11.4583" lengthAdjust="spacing" textLength="177.6487" x="891.6667" y="626.0712">entry / processBinaryCommand()</text></g><!--link *start*Active to Uninitialized--><g id="link_*start*Active_Uninitialized"><path d="M105.7292,429.0391 C105.7292,454.5391 105.7292,517.4141 105.7292,560.2787 " fill="none" id="*start*Active-to-Uninitialized" style="stroke:#446E9B;stroke-width:3.125;"/><polygon fill="#446E9B" points="105.7292,566.5287,109.8958,557.1537,105.7292,561.3204,101.5625,557.1537,105.7292,566.5287" style="stroke:#446E9B;stroke-width:3.125;"/></g><!--link Uninitialized to WaitingForNewCommand--><g id="link_Uninitialized_WaitingForNewCommand"><path d="M99.4063,640.0808 C97.7604,661.0391 99.6042,686.8099 114.0625,704.4662 C154.3542,753.6745 291.0547,793.5391 418.5924,821.2201 C482.3613,835.0606 543.8395,845.8552 589.8306,853.2489 C612.8261,856.9458 631.9498,859.7924 645.5522,861.7445 C648.9528,862.2325 652.0083,862.6646 654.693,863.0401 C656.0353,863.2278 657.2849,863.4014 658.4386,863.5608 C658.727,863.6006 652.8179,862.7869 653.0943,862.825 " fill="none" id="Uninitialized-to-WaitingForNewCommand" style="stroke:#446E9B;stroke-width:3.125;"/><polygon fill="#446E9B" points="659.2858,863.6776,650.5669,858.271,654.1262,862.9671,649.4301,866.5264,659.2858,863.6776" style="stroke:#446E9B;stroke-width:3.125;"/><text fill="#FFFFFF" font-family="Verdana" font-size="12.5" lengthAdjust="spacing" textLength="117.0758" x="120.3125" y="686.5788">SERIAL_INITIALIZED</text></g><!--link WaitingForNewCommand to Waiting--><g id="link_WaitingForNewCommand_Waiting"><path d="M659.8423,860.9254 C659.6969,860.8553 659.5498,860.7843 659.401,860.7124 C659.1034,860.5686 658.7989,860.4211 658.4876,860.2702 C657.865,859.9682 657.2151,859.6518 656.5389,859.3213 C655.1864,858.6602 653.7283,857.9423 652.1707,857.1688 C649.0554,855.6217 645.5423,853.852 641.681,851.869 C626.2357,843.9372 605.2188,832.5932 581.8073,818.4336 C534.9844,790.1146 478.5833,750.5339 438.0208,704.4662 C422.8333,687.2162 428.5417,676.487 414.0625,658.6329 C405.7813,648.4245 400.1786,642.7058 390.0536,634.4558 " fill="none" id="WaitingForNewCommand-to-Waiting" style="stroke:#446E9B;stroke-width:3.125;"/><polygon fill="#446E9B" points="385.2083,630.5079,389.8442,639.6599,389.246,633.7978,395.1081,633.1997,385.2083,630.5079" style="stroke:#446E9B;stroke-width:3.125;"/><text fill="#FFFFFF" font-family="Verdana" font-size="12.5" lengthAdjust="spacing" textLength="203.2139" x="444.2708" y="686.5788">ETHERNET_COMMAND_AVAILABLE</text></g><!--link Waiting to WaitingForNewCommand--><g id="link_Waiting_WaitingForNewCommand"><path d="M311.4688,615.8308 C291.1458,624.1849 267.6979,637.7787 255.7292,658.6329 C245.5938,676.2995 244.2292,687.6537 255.7292,704.4662 C310.8281,785.0079 412.7786,825.1172 501.5352,845.0886 C545.9134,855.0743 586.9932,860.0254 617.2687,862.4789 C632.4065,863.7056 644.8432,864.3079 653.6407,864.6029 C655.8401,864.6766 651.5637,864.5857 653.2935,864.6259 " fill="none" id="Waiting-to-WaitingForNewCommand" style="stroke:#446E9B;stroke-width:3.125;"/><polygon fill="#446E9B" points="659.5418,864.7714,650.2663,860.3877,654.3348,864.6502,650.0723,868.7187,659.5418,864.7714" style="stroke:#446E9B;stroke-width:3.125;"/><text fill="#FFFFFF" font-family="Verdana" font-size="12.5" lengthAdjust="spacing" textLength="142.251" x="261.9792" y="686.5788">COMMAND_PROCESSED</text></g><!--link WaitingForNewCommand to ChoosingCommandProcessor--><g id="link_WaitingForNewCommand_ChoosingCommandProcessor"><path d="M664.4314,727.6572 C664.4223,727.0036 664.4133,726.3492 664.4045,725.694 C664.2635,715.2108 664.1582,704.5263 664.1016,693.7904 C663.6484,607.9037 666.3073,518.7318 678.6458,503.0495 C704.8438,469.7474 803.639,447.3072 883.6599,433.8176 " fill="none" id="WaitingForNewCommand-to-ChoosingCommandProcessor" style="stroke:#446E9B;stroke-width:3.125;"/><polygon fill="#446E9B" points="889.8229,432.7787,879.8857,430.2284,884.687,433.6445,881.271,438.4458,889.8229,432.7787" style="stroke:#446E9B;stroke-width:3.125;"/><text fill="#FFFFFF" font-family="Verdana" font-size="12.5" lengthAdjust="spacing" textLength="182.2888" x="684.8958" y="608.4538">SERIAL_COMMAND_AVAILABLE</text></g><!--link ChoosingCommandProcessor to ProcessingBinaryCommand--><g id="link_ChoosingCommandProcessor_ProcessingBinaryCommand"><path d="M985.9375,447.0183 C985.9375,479.0495 985.9375,525.4766 985.9375,560.487 " fill="none" id="ChoosingCommandProcessor-to-ProcessingBinaryCommand" style="stroke:#446E9B;stroke-width:3.125;"/><polygon fill="#446E9B" points="985.9375,566.737,990.1042,557.362,985.9375,561.5287,981.7708,557.362,985.9375,566.737" style="stroke:#446E9B;stroke-width:3.125;"/><text fill="#FFFFFF" font-family="Verdana" font-size="12.5" lengthAdjust="spacing" textLength="176.4263" x="992.1875" y="485.1621">PROCESS_BINARY_COMMAND</text></g><!--link ProcessingBinaryCommand to PlayingPattern--><g id="link_ProcessingBinaryCommand_PlayingPattern"><path d="M905.5521,640.2474 C899.5,645.6224 894.1875,651.7162 890.1042,658.6329 C862.4375,705.5079 865.7473,763.279 873.9348,807.4874 " fill="none" id="ProcessingBinaryCommand-to-PlayingPattern" style="stroke:#446E9B;stroke-width:3.125;"/><polygon fill="#446E9B" points="875.0729,813.6329,877.4627,803.6559,874.1244,808.5116,869.2687,805.1734,875.0729,813.6329" style="stroke:#446E9B;stroke-width:3.125;"/><text fill="#FFFFFF" font-family="Verdana" font-size="12.5" lengthAdjust="spacing" textLength="96.3007" x="935.0482" y="678.2455">PLAY_PATTERN /</text><text fill="#FFFFFF" font-family="Verdana" font-size="12.5" lengthAdjust="spacing" textLength="173.6887" x="896.3542" y="695.2706">storePlayPatternParameters()</text></g><!--link ProcessingBinaryCommand to PlayingPattern--><g id="link_ProcessingBinaryCommand_PlayingPattern"><path d="M1060.4063,640.0495 C1066.3646,645.4974 1071.5938,651.6641 1075.5208,658.6329 C1085.5313,676.3724 1084.0417,685.9662 1075.5208,704.4662 C1054.8229,749.4141 1019.7167,782.8167 981.8417,809.9417 " fill="none" id="ProcessingBinaryCommand-to-PlayingPattern-1" style="stroke:#446E9B;stroke-width:3.125;"/><polygon fill="#446E9B" points="976.7604,813.5808,986.8084,811.5097,980.9948,810.5482,981.9563,804.7346,976.7604,813.5808" style="stroke:#446E9B;stroke-width:3.125;"/><text fill="#FFFFFF" font-family="Verdana" font-size="12.5" lengthAdjust="spacing" textLength="150.6761" x="1120.6586" y="678.2455">ANALOG_CLOSED_LOOP /</text><text fill="#FFFFFF" font-family="Verdana" font-size="12.5" lengthAdjust="spacing" textLength="215.9516" x="1088.0208" y="695.2706">storeAnalogClosedLoopParameters()</text></g><!--link ProcessingBinaryCommand to WaitingForNewCommand--><g id="link_ProcessingBinaryCommand_WaitingForNewCommand"><path d="M881.0208,636.5912 C876.0104,637.7683 871.0313,638.8829 866.1458,639.8829 C831.2083,647.0495 735.8021,637.9141 706.7708,658.6329 C685.0313,674.1537 687.7292,687.0183 680.7292,712.7995 C679.6361,716.8262 678.6302,720.9331 677.7049,725.0951 C677.4736,726.1356 677.2473,727.1795 677.0259,728.2265 C676.9706,728.4883 678.1928,722.6321 678.1381,722.8942 " fill="none" id="ProcessingBinaryCommand-to-WaitingForNewCommand" style="stroke:#446E9B;stroke-width:3.125;"/><polygon fill="#446E9B" points="676.8608,729.0123,682.8554,720.6867,677.9252,723.9139,674.698,718.9837,676.8608,729.0123" style="stroke:#446E9B;stroke-width:3.125;"/><text fill="#FFFFFF" font-family="Verdana" font-size="12.5" lengthAdjust="spacing" textLength="150.1511" x="713.0208" y="678.2455">COMMAND_PROCESSED /</text><text fill="#FFFFFF" font-family="Verdana" font-size="12.5" lengthAdjust="spacing" textLength="131.7259" x="722.2334" y="695.2706">writeBinaryResponse()</text></g><!--link ProcessingStreamCommand to c--><g id="link_ProcessingStreamCommand_c"><path d="M1416.1979,604.4766 C1418.3333,604.8724 1486.9063,617.9037 1514.0625,658.6329 C1556.6354,722.4766 1545.2648,816.6984 1539.9002,848.6255 " fill="none" id="ProcessingStreamCommand-to-c" style="stroke:#446E9B;stroke-width:3.125;"/><polygon fill="#446E9B" points="1538.8646,854.7891,1544.5271,846.2341,1539.7276,849.6528,1536.309,844.8533,1538.8646,854.7891" style="stroke:#446E9B;stroke-width:3.125;"/><text fill="#FFFFFF" font-family="Verdana" font-size="12.5" lengthAdjust="spacing" textLength="190.1889" x="1540.1042" y="678.2455">SERIAL_COMMAND_AVAILABLE /</text><text fill="#FFFFFF" font-family="Verdana" font-size="12.5" lengthAdjust="spacing" textLength="152.726" x="1558.8356" y="695.2706">updateStreamCommand()</text></g><!--link c to MidStreamCommand--><g id="link_c_MidStreamCommand"><path d="M1529.8958,871.9662 C1503.7188,891.0704 1415.8229,960.9766 1452.6042,1013.8412 C1464.6354,1031.1329 1477.9949,1039.9576 1497.8387,1046.7701 " fill="none" id="c-to-MidStreamCommand" style="stroke:#446E9B;stroke-width:3.125;"/><polygon fill="#446E9B" points="1503.75,1048.7995,1496.2359,1041.8145,1498.8239,1047.1084,1493.53,1049.6963,1503.75,1048.7995" style="stroke:#446E9B;stroke-width:3.125;"/><text fill="#FFFFFF" font-family="Verdana" font-size="12.5" lengthAdjust="spacing" textLength="191.3764" x="1458.8542" y="987.6205">[ifStreamCommandComplete()] /</text><text fill="#FFFFFF" font-family="Verdana" font-size="12.5" lengthAdjust="spacing" textLength="156.4886" x="1476.298" y="1004.6456">processStreamCommand()</text></g><!--link c to MidStreamCommand--><g id="link_c_MidStreamCommand"><path d="M1545.1146,870.737 C1567.8646,881.7995 1632,916.6537 1655.7292,968.0079 C1664.2708,986.4974 1665.8125,996.1433 1655.7292,1013.8412 C1651.75,1020.8308 1651.052,1022.8721 1644.8125,1028.07 " fill="none" id="c-to-MidStreamCommand-1" style="stroke:#446E9B;stroke-width:3.125;"/><polygon fill="#446E9B" points="1640.0104,1032.0704,1649.8804,1029.2712,1644.0121,1028.7367,1644.5466,1022.8685,1640.0104,1032.0704" style="stroke:#446E9B;stroke-width:3.125;"/><text fill="#FFFFFF" font-family="Verdana" font-size="12.5" lengthAdjust="spacing" textLength="31.5377" x="1668.2292" y="995.9538">[else]</text></g><!--link ChoosingCommandProcessor to ProcessingStreamCommand--><g id="link_ChoosingCommandProcessor_ProcessingStreamCommand"><path d="M1082.2083,436.6537 C1113.5521,443.8412 1148.125,453.3829 1178.6458,465.5495 C1234.3438,487.7527 1292.7474,521.2474 1337.7005,549.5404 C1360.1771,563.6869 1379.291,576.5329 1393.0228,586.0168 C1396.4557,588.3878 1399.5523,590.5486 1402.2809,592.4671 C1403.6452,593.4264 1404.9175,594.325 1406.0939,595.1591 C1406.6821,595.5761 1402.1546,592.3524 1402.6944,592.7367 " fill="none" id="ChoosingCommandProcessor-to-ProcessingStreamCommand" style="stroke:#446E9B;stroke-width:3.125;"/><polygon fill="#446E9B" points="1407.7861,596.3612,1402.5649,587.5299,1403.543,593.3407,1397.7322,594.3189,1407.7861,596.3612" style="stroke:#446E9B;stroke-width:3.125;"/><text fill="#FFFFFF" font-family="Verdana" font-size="12.5" lengthAdjust="spacing" textLength="179.5888" x="1245.3125" y="485.1621">PROCESS_STREAM_COMMAND</text></g><!--link ProcessingStreamCommand to WaitingForNewCommand--><g id="link_ProcessingStreamCommand_WaitingForNewCommand"><path d="M1407.718,609.9741 C1407.6469,610.0219 1407.5753,610.07 1407.5034,610.1183 C1407.3595,610.215 1407.2141,610.3128 1407.0673,610.4117 C1406.7737,610.6095 1406.4742,610.8117 1406.1691,611.0182 C1405.5589,611.4311 1404.9262,611.8613 1404.2724,612.3079 C1402.965,613.2013 1401.5737,614.1608 1400.111,615.181 C1397.1856,617.2215 1393.9749,619.5049 1390.5794,621.9883 C1376.9974,631.9219 1360.4583,645.0547 1347.3958,658.6329 C1329.9271,676.7787 1336.4271,692.8933 1314.0625,704.4662 C1298.4375,712.5495 693.5938,700.7891 680.7292,712.7995 C656.3281,735.5756 652.9193,772.7735 655.7487,804.6797 C656.4561,812.6563 657.5533,820.3021 658.8099,827.3092 C659.1241,829.061 658.2329,824.6421 658.5634,826.3092 " fill="none" id="ProcessingStreamCommand-to-WaitingForNewCommand" style="stroke:#446E9B;stroke-width:3.125;"/><polygon fill="#446E9B" points="659.7787,832.4399,662.0429,822.4337,658.7659,827.331,653.8686,824.0541,659.7787,832.4399" style="stroke:#446E9B;stroke-width:3.125;"/><text fill="#FFFFFF" font-family="Verdana" font-size="12.5" lengthAdjust="spacing" textLength="150.1511" x="1353.6458" y="678.2455">COMMAND_PROCESSED /</text><text fill="#FFFFFF" font-family="Verdana" font-size="12.5" lengthAdjust="spacing" textLength="131.7259" x="1362.8584" y="695.2706">writeBinaryResponse()</text></g><!--link *start* to Inactive--><g id="link_*start*_Inactive"><path d="M889.5833,37.7917 C889.5833,56.9063 889.5833,93.8854 889.5833,122.625 " fill="none" id="*start*-to-Inactive" style="stroke:#446E9B;stroke-width:3.125;"/><polygon fill="#446E9B" points="889.5833,128.875,893.75,119.5,889.5833,123.6667,885.4167,119.5,889.5833,128.875" style="stroke:#446E9B;stroke-width:3.125;"/><text fill="#FFFFFF" font-family="Verdana" font-size="12.5" lengthAdjust="spacing" textLength="136.5885" x="895.8333" y="88.3626">initializeAndSubscribe()</text></g><!--link Inactive to Active--><g id="link_Inactive_Active"><path d="M852.2708,161.7083 C816.1146,166.6979 763.1042,180.3438 737.5,217.7083 C724.4583,236.7396 717.2019,250.8738 711.9728,271.8113 " fill="none" id="Inactive-to-Active" style="stroke:#446E9B;stroke-width:3.125;"/><polygon fill="#446E9B" points="710.4583,277.875,716.7725,269.789,711.7204,272.8219,708.6875,267.7698,710.4583,277.875" style="stroke:#446E9B;stroke-width:3.125;"/><text fill="#FFFFFF" font-family="Verdana" font-size="12.5" lengthAdjust="spacing" textLength="245.1642" x="743.75" y="237.3209">ACTIVATE_SERIAL_COMMAND_INTERFACE</text></g><!--link Active to Inactive--><g id="link_Active_Inactive"><path d="M994.9167,277.6146 C996.3958,267.2917 997.75,257.0313 998.9583,246.875 C1000.4896,234 1005.6042,228.8333 998.9583,217.7083 C983.4792,191.7917 958.1443,178.6125 932.9881,170.175 " fill="none" id="Active-to-Inactive" style="stroke:#446E9B;stroke-width:3.125;"/><polygon fill="#446E9B" points="927.0625,168.1875,934.6259,175.1191,932.0005,169.8437,937.2758,167.2183,927.0625,168.1875" style="stroke:#446E9B;stroke-width:3.125;"/><text fill="#FFFFFF" font-family="Verdana" font-size="12.5" lengthAdjust="spacing" textLength="261.2393" x="1008.3333" y="237.3209">DEACTIVATE_SERIAL_COMMAND_INTERFACE</text></g><!--SRC=[fPPTRvim58Rl-HNUNJkfwdrLLNA9qo8HG40xTLs473XhB86DRBgkc_BVPxu3WJJLBXAGEUzptfnpRFAbs486IEKqXfHk35NG0f35QLomNu3-6ZlZ-UiQNLpSz8jNY75MC9goFu1v4hnkL2pP1ixE6pbknQYzlKB02_cEBX6LMG1IYqEMWRJ5Mv0395gw7_kR5JeqOMeOFOmI70N4jx0TXTQAk0-XbkGYJMj15LlRUU2ztwHoXKPhlRr-TG-pqv-s2WDXb-8RrMlyPIca0s-co3BAsqoJZqvotyAzbBvhWaUB0YHli6YyN25DTxN2pYBoVDSaGK0MclecMG6tZ5FvxeFA1LVGuASP7Wv3uZlHqdAiu9vec8sVBEUkHJN1Irq7jONaDAP6H2sO-BxhZsX4IY57g5rJ-c6loYRCrBGfgFOTwglrdIp63QgALp8d2NjeJIFXlNPBmgWjAdx4berlRTBhZxavw4LdnjmAeRIYYVMaY44f8JzsDwliVloKsMQCwc2jheTXEAPpJ_kjaTSHWyVTzfWrLhgUPpUrYMuj1_jFhNbZtaw56m_O_dIXonzS5K926TM4U5JI3FITgln-YeqTRBjtaMcxkeEHxRfUbm5pceeNCnKA4bk8_1DfJXsPCjVS_XrtDIWaq6okgyEdS-VnFNlPzWVoKNrzHXyvpbk7CRg-ZhU2nN1pSnHQ5YO-CibbCLxpH3C7ka6o5Kkcwh2hlkCgnK785NfcFmTB-fAdkfDdv-ioQJFvKrddaP0gM7zkTumPxUu8Gf_WrUJkEApW_u_MpkXUzIMmU-5YCxGUSKYYKOCiHs-y9JQ9WNlLth-51VbG-Gy0]--></g></svg>